{
    "asset" : {
        "generator" : "Khronos glTF Blender I/O v1.3.48",
        "version" : "2.0"
    },
    "scene" : 0,
    "scenes" : [
        {
            "name" : "Scene",
            "nodes" : [
                0,
                1,
                2,
                3,
                4,
                5
            ]
        }
    ],
    "nodes" : [
        {
            "name" : "Light",
            "rotation" : [
                0.16907575726509094,
                0.7558803558349609,
                -0.27217137813568115,
                0.570947527885437
            ],
            "translation" : [
                4.076245307922363,
                5.903861999511719,
                -1.0054539442062378
            ]
        },
        {
            "name" : "Camera",
            "rotation" : [
                0.483536034822464,
                0.33687159419059753,
                -0.20870360732078552,
                0.7804827094078064
            ],
            "translation" : [
                7.358891487121582,
                4.958309173583984,
                6.925790786743164
            ]
        },
        {
            "mesh" : 0,
            "name" : "Sphere",
            "rotation" : [
                0.3642996549606323,
                -0.6060410737991333,
                0.6060410141944885,
                0.3642997145652771
            ],
            "scale" : [
                0.009999999776482582,
                0.009999999776482582,
                0.009999999776482582
            ],
            "translation" : [
                -0.06915246695280075,
                1.1362560987472534,
                0.017412129789590836
            ]
        },
        {
            "mesh" : 1,
            "name" : "Sphere_2",
            "rotation" : [
                0.47685375809669495,
                -0.5221211910247803,
                0.5221210718154907,
                0.4768538177013397
            ],
            "scale" : [
                0.009999999776482582,
                0.009999999776482582,
                0.009999999776482582
            ],
            "translation" : [
                -1.3859210014343262,
                2.636540412902832,
                0.002106889383867383
            ]
        },
        {
            "mesh" : 2,
            "name" : "Sphere_3",
            "rotation" : [
                0.47685375809669495,
                -0.5221211910247803,
                0.5221210718154907,
                0.4768538177013397
            ],
            "scale" : [
                0.009999999776482582,
                0.009999999776482582,
                0.009999999776482582
            ],
            "translation" : [
                1.1800519227981567,
                2.6933462619781494,
                -0.001793925417587161
            ]
        },
        {
            "mesh" : 3,
            "name" : "Circle",
            "rotation" : [
                0.3642996549606323,
                -0.6060410737991333,
                0.6060410141944885,
                0.3642997145652771
            ],
            "scale" : [
                0.009999999776482582,
                0.009999999776482582,
                0.009999999776482582
            ],
            "translation" : [
                1.9310141801834106,
                0.6662949919700623,
                -0.002935545053333044
            ]
        }
    ],
    "animations" : [
        {
            "channels" : [
                {
                    "sampler" : 0,
                    "target" : {
                        "node" : 2,
                        "path" : "translation"
                    }
                },
                {
                    "sampler" : 1,
                    "target" : {
                        "node" : 2,
                        "path" : "rotation"
                    }
                },
                {
                    "sampler" : 2,
                    "target" : {
                        "node" : 2,
                        "path" : "scale"
                    }
                }
            ],
            "name" : "Sphere|C4D Animation Take|Layer0",
            "samplers" : [
                {
                    "input" : 13,
                    "interpolation" : "LINEAR",
                    "output" : 14
                },
                {
                    "input" : 13,
                    "interpolation" : "LINEAR",
                    "output" : 15
                },
                {
                    "input" : 13,
                    "interpolation" : "LINEAR",
                    "output" : 16
                }
            ]
        },
        {
            "channels" : [
                {
                    "sampler" : 0,
                    "target" : {
                        "node" : 3,
                        "path" : "translation"
                    }
                },
                {
                    "sampler" : 1,
                    "target" : {
                        "node" : 3,
                        "path" : "rotation"
                    }
                },
                {
                    "sampler" : 2,
                    "target" : {
                        "node" : 3,
                        "path" : "scale"
                    }
                }
            ],
            "name" : "Sphere_2|C4D Animation Take|Layer0",
            "samplers" : [
                {
                    "input" : 13,
                    "interpolation" : "LINEAR",
                    "output" : 17
                },
                {
                    "input" : 13,
                    "interpolation" : "LINEAR",
                    "output" : 18
                },
                {
                    "input" : 13,
                    "interpolation" : "LINEAR",
                    "output" : 19
                }
            ]
        },
        {
            "channels" : [
                {
                    "sampler" : 0,
                    "target" : {
                        "node" : 4,
                        "path" : "translation"
                    }
                },
                {
                    "sampler" : 1,
                    "target" : {
                        "node" : 4,
                        "path" : "rotation"
                    }
                },
                {
                    "sampler" : 2,
                    "target" : {
                        "node" : 4,
                        "path" : "scale"
                    }
                }
            ],
            "name" : "Sphere_3|C4D Animation Take|Layer0",
            "samplers" : [
                {
                    "input" : 13,
                    "interpolation" : "LINEAR",
                    "output" : 20
                },
                {
                    "input" : 13,
                    "interpolation" : "LINEAR",
                    "output" : 21
                },
                {
                    "input" : 13,
                    "interpolation" : "LINEAR",
                    "output" : 22
                }
            ]
        },
        {
            "channels" : [
                {
                    "sampler" : 0,
                    "target" : {
                        "node" : 5,
                        "path" : "translation"
                    }
                },
                {
                    "sampler" : 1,
                    "target" : {
                        "node" : 5,
                        "path" : "rotation"
                    }
                },
                {
                    "sampler" : 2,
                    "target" : {
                        "node" : 5,
                        "path" : "scale"
                    }
                }
            ],
            "name" : "Circle|C4D Animation Take|Layer0",
            "samplers" : [
                {
                    "input" : 13,
                    "interpolation" : "LINEAR",
                    "output" : 23
                },
                {
                    "input" : 13,
                    "interpolation" : "LINEAR",
                    "output" : 24
                },
                {
                    "input" : 13,
                    "interpolation" : "LINEAR",
                    "output" : 25
                }
            ]
        }
    ],
    "materials" : [
        {
            "doubleSided" : true,
            "emissiveFactor" : [
                0,
                0,
                0
            ],
            "name" : "Mat.1",
            "pbrMetallicRoughness" : {
                "baseColorFactor" : [
                    1,
                    0.7705234289169312,
                    0.01652892492711544,
                    1
                ],
                "metallicFactor" : 0,
                "roughnessFactor" : 0.2928932309150696
            }
        },
        {
            "doubleSided" : true,
            "emissiveFactor" : [
                0,
                0,
                0
            ],
            "name" : "Mat.2",
            "pbrMetallicRoughness" : {
                "baseColorFactor" : [
                    0,
                    1,
                    0.01666666753590107,
                    1
                ],
                "metallicFactor" : 0,
                "roughnessFactor" : 0.2928932309150696
            }
        },
        {
            "doubleSided" : true,
            "emissiveFactor" : [
                0,
                0,
                0
            ],
            "name" : "Mat.3",
            "pbrMetallicRoughness" : {
                "baseColorFactor" : [
                    0,
                    0.21666666865348816,
                    1,
                    1
                ],
                "metallicFactor" : 0,
                "roughnessFactor" : 0.2928932309150696
            }
        },
        {
            "doubleSided" : true,
            "emissiveFactor" : [
                0,
                0,
                0
            ],
            "name" : "Mat",
            "pbrMetallicRoughness" : {
                "baseColorFactor" : [
                    0.8673469424247742,
                    0.014336313121020794,
                    0.014336313121020794,
                    1
                ],
                "metallicFactor" : 0,
                "roughnessFactor" : 0.2928932309150696
            }
        }
    ],
    "meshes" : [
        {
            "name" : "Mesh",
            "primitives" : [
                {
                    "attributes" : {
                        "POSITION" : 0,
                        "NORMAL" : 1,
                        "TEXCOORD_0" : 2
                    },
                    "indices" : 3,
                    "material" : 0
                }
            ]
        },
        {
            "name" : "Mesh.001",
            "primitives" : [
                {
                    "attributes" : {
                        "POSITION" : 4,
                        "NORMAL" : 5,
                        "TEXCOORD_0" : 6
                    },
                    "indices" : 3,
                    "material" : 1
                }
            ]
        },
        {
            "name" : "Mesh.002",
            "primitives" : [
                {
                    "attributes" : {
                        "POSITION" : 7,
                        "NORMAL" : 8,
                        "TEXCOORD_0" : 9
                    },
                    "indices" : 3,
                    "material" : 2
                }
            ]
        },
        {
            "name" : "Mesh.003",
            "primitives" : [
                {
                    "attributes" : {
                        "POSITION" : 10,
                        "NORMAL" : 11,
                        "TEXCOORD_0" : 12
                    },
                    "indices" : 3,
                    "material" : 3
                }
            ]
        }
    ],
    "accessors" : [
        {
            "bufferView" : 0,
            "componentType" : 5126,
            "count" : 323,
            "max" : [
                51.26360321044922,
                51.26360321044922,
                51.26360321044922
            ],
            "min" : [
                -51.26360321044922,
                -51.26360321044922,
                -51.26360321044922
            ],
            "type" : "VEC3"
        },
        {
            "bufferView" : 1,
            "componentType" : 5126,
            "count" : 323,
            "type" : "VEC3"
        },
        {
            "bufferView" : 2,
            "componentType" : 5126,
            "count" : 323,
            "type" : "VEC2"
        },
        {
            "bufferView" : 3,
            "componentType" : 5123,
            "count" : 1584,
            "type" : "SCALAR"
        },
        {
            "bufferView" : 4,
            "componentType" : 5126,
            "count" : 323,
            "max" : [
                27.077484130859375,
                27.077484130859375,
                27.077484130859375
            ],
            "min" : [
                -27.077484130859375,
                -27.077484130859375,
                -27.077484130859375
            ],
            "type" : "VEC3"
        },
        {
            "bufferView" : 5,
            "componentType" : 5126,
            "count" : 323,
            "type" : "VEC3"
        },
        {
            "bufferView" : 6,
            "componentType" : 5126,
            "count" : 323,
            "type" : "VEC2"
        },
        {
            "bufferView" : 7,
            "componentType" : 5126,
            "count" : 323,
            "max" : [
                15.79050064086914,
                15.79050064086914,
                15.79050064086914
            ],
            "min" : [
                -15.79050064086914,
                -15.79050064086914,
                -15.79050064086914
            ],
            "type" : "VEC3"
        },
        {
            "bufferView" : 8,
            "componentType" : 5126,
            "count" : 323,
            "type" : "VEC3"
        },
        {
            "bufferView" : 9,
            "componentType" : 5126,
            "count" : 323,
            "type" : "VEC2"
        },
        {
            "bufferView" : 10,
            "componentType" : 5126,
            "count" : 323,
            "max" : [
                27.077484130859375,
                27.077484130859375,
                27.077484130859375
            ],
            "min" : [
                -27.077484130859375,
                -27.077484130859375,
                -27.077484130859375
            ],
            "type" : "VEC3"
        },
        {
            "bufferView" : 11,
            "componentType" : 5126,
            "count" : 323,
            "type" : "VEC3"
        },
        {
            "bufferView" : 12,
            "componentType" : 5126,
            "count" : 323,
            "type" : "VEC2"
        },
        {
            "bufferView" : 13,
            "componentType" : 5126,
            "count" : 152,
            "max" : [
                5.066666666666666
            ],
            "min" : [
                0.03333333333333333
            ],
            "type" : "SCALAR"
        },
        {
            "bufferView" : 14,
            "componentType" : 5126,
            "count" : 152,
            "type" : "VEC3"
        },
        {
            "bufferView" : 15,
            "componentType" : 5126,
            "count" : 152,
            "type" : "VEC4"
        },
        {
            "bufferView" : 16,
            "componentType" : 5126,
            "count" : 152,
            "type" : "VEC3"
        },
        {
            "bufferView" : 17,
            "componentType" : 5126,
            "count" : 152,
            "type" : "VEC3"
        },
        {
            "bufferView" : 18,
            "componentType" : 5126,
            "count" : 152,
            "type" : "VEC4"
        },
        {
            "bufferView" : 19,
            "componentType" : 5126,
            "count" : 152,
            "type" : "VEC3"
        },
        {
            "bufferView" : 20,
            "componentType" : 5126,
            "count" : 152,
            "type" : "VEC3"
        },
        {
            "bufferView" : 21,
            "componentType" : 5126,
            "count" : 152,
            "type" : "VEC4"
        },
        {
            "bufferView" : 22,
            "componentType" : 5126,
            "count" : 152,
            "type" : "VEC3"
        },
        {
            "bufferView" : 23,
            "componentType" : 5126,
            "count" : 152,
            "type" : "VEC3"
        },
        {
            "bufferView" : 24,
            "componentType" : 5126,
            "count" : 152,
            "type" : "VEC4"
        },
        {
            "bufferView" : 25,
            "componentType" : 5126,
            "count" : 152,
            "type" : "VEC3"
        }
    ],
    "bufferViews" : [
        {
            "buffer" : 0,
            "byteLength" : 3876,
            "byteOffset" : 0
        },
        {
            "buffer" : 0,
            "byteLength" : 3876,
            "byteOffset" : 3876
        },
        {
            "buffer" : 0,
            "byteLength" : 2584,
            "byteOffset" : 7752
        },
        {
            "buffer" : 0,
            "byteLength" : 3168,
            "byteOffset" : 10336
        },
        {
            "buffer" : 0,
            "byteLength" : 3876,
            "byteOffset" : 13504
        },
        {
            "buffer" : 0,
            "byteLength" : 3876,
            "byteOffset" : 17380
        },
        {
            "buffer" : 0,
            "byteLength" : 2584,
            "byteOffset" : 21256
        },
        {
            "buffer" : 0,
            "byteLength" : 3876,
            "byteOffset" : 23840
        },
        {
            "buffer" : 0,
            "byteLength" : 3876,
            "byteOffset" : 27716
        },
        {
            "buffer" : 0,
            "byteLength" : 2584,
            "byteOffset" : 31592
        },
        {
            "buffer" : 0,
            "byteLength" : 3876,
            "byteOffset" : 34176
        },
        {
            "buffer" : 0,
            "byteLength" : 3876,
            "byteOffset" : 38052
        },
        {
            "buffer" : 0,
            "byteLength" : 2584,
            "byteOffset" : 41928
        },
        {
            "buffer" : 0,
            "byteLength" : 608,
            "byteOffset" : 44512
        },
        {
            "buffer" : 0,
            "byteLength" : 1824,
            "byteOffset" : 45120
        },
        {
            "buffer" : 0,
            "byteLength" : 2432,
            "byteOffset" : 46944
        },
        {
            "buffer" : 0,
            "byteLength" : 1824,
            "byteOffset" : 49376
        },
        {
            "buffer" : 0,
            "byteLength" : 1824,
            "byteOffset" : 51200
        },
        {
            "buffer" : 0,
            "byteLength" : 2432,
            "byteOffset" : 53024
        },
        {
            "buffer" : 0,
            "byteLength" : 1824,
            "byteOffset" : 55456
        },
        {
            "buffer" : 0,
            "byteLength" : 1824,
            "byteOffset" : 57280
        },
        {
            "buffer" : 0,
            "byteLength" : 2432,
            "byteOffset" : 59104
        },
        {
            "buffer" : 0,
            "byteLength" : 1824,
            "byteOffset" : 61536
        },
        {
            "buffer" : 0,
            "byteLength" : 1824,
            "byteOffset" : 63360
        },
        {
            "buffer" : 0,
            "byteLength" : 2432,
            "byteOffset" : 65184
        },
        {
            "buffer" : 0,
            "byteLength" : 1824,
            "byteOffset" : 67616
        }
    ],
    "buffers" : [
        {
            "byteLength" : 69440,
            "uri" : "data:application/octet-stream;base64,"
        }
    ]
}
